<svg width="855" height="1240" viewBox="0 0 855 1240" fill="none" xmlns="http://www.w3.org/2000/svg">
<rect x="86.1514" y="651.324" width="426.9" height="434.158" transform="rotate(-54.2268 86.1514 651.324)" fill="#1389B5" fill-opacity="0.4"/>
<rect y="813.988" width="426.9" height="434.158" transform="rotate(-11.3793 0 813.988)" fill="#1389B5" fill-opacity="0.4"/>
<rect x="170.99" y="448.451" width="342.431" height="348.252" transform="rotate(-112.147 170.99 448.451)" fill="#1389B5" fill-opacity="0.4"/>
<rect x="552" y="369.409" width="46.3199" height="47.1074" transform="rotate(-74.5661 552 369.409)" fill="#1389B5" fill-opacity="0.4"/>
<rect x="797" y="584.409" width="46.3199" height="47.1074" transform="rotate(-74.5661 797 584.409)" fill="#1389B5" fill-opacity="0.4"/>
<rect x="582.937" y="935.524" width="46.3199" height="47.1074" transform="rotate(-116.158 582.937 935.524)" fill="#1389B5" fill-opacity="0.4"/>
<rect x="592.288" y="904.336" width="73.2412" height="74.4863" transform="rotate(-116.158 592.288 904.336)" fill="#1389B5" fill-opacity="0.4"/>
<rect x="552.374" y="200.119" width="96.4867" height="98.1269" transform="rotate(-112.147 552.374 200.119)" fill="#1389B5" fill-opacity="0.4"/>
<rect x="711.299" y="335.126" width="120.163" height="122.206" transform="rotate(-112.147 711.299 335.126)" fill="#1389B5" fill-opacity="0.4"/>
<rect x="720.997" y="362.527" width="80.6319" height="82.0026" transform="rotate(-139.155 720.997 362.527)" fill="#1389B5" fill-opacity="0.4"/>
</svg>
